<svg width="200.7" height="45" xmlns="http://www.w3.org/2000/svg" xml:space="preserve" version="1.1">

 <g>
  <title>Layer 1</title>
  <g id="Layer_2_1_"/>
  <g id="Layer_3">
   <text xml:space="preserve" text-anchor="start" font-family="Noto Sans JP" font-size="35" id="svg_41" y="31.5" x="54.34998" stroke-width="0" stroke="#ffffff" fill="#ffffff">cenxiv.org</text>
  </g>
  <path stroke="#ffffff" id="svg_39" d="m23.9744,0.35751c6.14878,0 11.13702,4.93055 11.13702,11.00237c0,6.07182 -4.98824,10.99763 -11.13702,10.99763c-6.14878,0 -11.13702,4.93056 -11.13702,11.00237c0,6.07182 4.98824,10.99763 11.13702,10.99763c12.29755,0 22.27883,-9.85636 22.27883,-22c0,-12.14364 -9.98128,-22 -22.27883,-22l0,0zm0,7.56413c-1.92248,0 -3.48182,1.53982 -3.48182,3.43824c0,1.89843 1.55933,3.43824 3.48182,3.43824c1.92248,0 3.48182,-1.53982 3.48182,-3.43824c0,-1.89842 -1.55933,-3.43824 -3.48182,-3.43824zm0,22c1.92149,0 3.48182,1.5408 3.48182,3.43824c0,1.89744 -1.56033,3.43824 -3.48182,3.43824c-1.92149,0 -3.48182,-1.5408 -3.48182,-3.43824c0,-1.89744 1.56033,-3.43824 3.48182,-3.43824zm21.77913,-7.55012c0,12.13462 -9.96173,21.97167 -22.25015,21.97167c-12.28842,0 -22.25015,-9.83705 -22.25015,-21.97167c0,-12.13462 9.96173,-21.97168 22.25015,-21.97168c12.28842,0 22.25015,9.83706 22.25015,21.97168z" stroke-width="0" fill="#ffffff"/>
 </g>
</svg>