<svg width="310" height="110.119" xmlns="http://www.w3.org/2000/svg" data-name="primary logo - single color - white">

 <g>
  <title>Layer 1</title>
  <path id="svg_1" fill="#fff" d="m194.81099,46.23l24.36,-29.89c1.492,-1.989 2.2,-3.03 1.492,-4.723a5.142,5.142 0 0 0 -4.481,-3.161l0,0a4.024,4.024 0 0 0 -3.008,1.108l-26.139,28.26l7.776,8.406z"/>
  <path id="svg_2" fill="#fff" d="m228.10799,102.071l-32.363,-38.283l-0.972,1.033l-7.789,-9.214l-7.743,-9.357l-4.695,5.076a4.769,4.769 0 0 0 0.015,6.53l47.786,51.074a3.913,3.913 0 0 0 3.137,1.192a4.394,4.394 0 0 0 4.027,-2.818c0.724,-1.73 -0.076,-3.441 -1.403,-5.233z"/>
  <path id="svg_3" fill="#fff" d="m181.04999,64.817l6.052,6.485l-26.553,28.128a2.98,2.98 0 0 1 -2.275,1.194a3.449,3.449 0 0 1 -3.241,-2.144c-0.513,-1.231 0.166,-3.15 1.122,-4.168l0.023,-0.024l0.021,-0.026l24.851,-29.448m-0.047,-1.882l-25.76,30.524c-1.286,1.372 -2.084,3.777 -1.365,5.5a4.705,4.705 0 0 0 4.4,2.914a4.191,4.191 0 0 0 3.161,-1.563l27.382,-29.007l-7.814,-8.372l-0.004,0.004z"/>
  <path id="svg_5" fill="#fff" d="m241.06799,31.884c2.656,0 4.074,1.416 4.074,4.074l0,34.007l10.1,0c2.746,0 4.074,1.329 4.074,4.074s-1.328,4.074 -4.074,4.074l-28.607,0c-2.656,0 -4.074,-1.328 -4.074,-4.074s1.418,-4.074 4.074,-4.074l10.362,0l0,-29.935l-8.533,0c-2.744,0 -4.073,-1.329 -4.073,-4.074c0,-2.658 1.329,-4.074 4.073,-4.074l12.604,0.002zm4.22,-17.615a5.859,5.859 0 1 1 -5.819,-5.819a5.9,5.9 0 0 1 5.819,5.819z"/>
  <path id="svg_6" fill="#fff" d="m306.97799,35.958a4.589,4.589 0 0 1 -0.267,1.594l-14.876,38.078a3.722,3.722 0 0 1 -3.721,2.48l-5.933,0a3.689,3.689 0 0 1 -3.808,-2.48l-15.055,-38.081a3.23,3.23 0 0 1 -0.355,-1.594a4.084,4.084 0 0 1 4.164,-4.074a3.8,3.8 0 0 1 3.718,2.656l14.348,36.134l13.9,-36.134a3.8,3.8 0 0 1 3.72,-2.656a4.084,4.084 0 0 1 4.165,4.077z"/>
  <path id="svg_8" fill="#fff" d="m150.37299,1.25l0.077,0c1,0.024 2.236,1.245 2.589,1.669l0.023,0.028l0.024,0.026l46.664,50.433a3.173,3.173 0 0 1 -0.034,4.336l-4.893,5.2l-6.876,-8.134l-39.46,-47.678c-1.508,-2.166 -1.617,-2.836 -1.191,-3.858a3.353,3.353 0 0 1 3.077,-2.02m0,-1.25a4.606,4.606 0 0 0 -4.231,2.789c-0.705,1.692 -0.2,2.88 1.349,5.1l39.493,47.722l7.789,9.214l5.853,-6.221a4.417,4.417 0 0 0 0.042,-6.042l-46.664,-50.434s-1.713,-2.08 -3.524,-2.124l-0.107,-0.004z"/>
  <text stroke="#ffffff" font-style="normal" font-weight="normal" xml:space="preserve" text-anchor="start" font-family="Noto Sans JP" font-size="110" stroke-width="0" id="svg_9" y="80" x="-1" fill="#ffffff">cen</text>
 </g>
</svg>